# xmcd
#
# Track frame offsets:
#	150
#	11451
#	30263
#	47566
#	60436
#	92409
#	127972
#	143093
#	154198
#	164800
#	178914
#	193352
#
# Disc length: 2721 seconds
#
# Revision: 1
# Processed by: cddbd v1.5.2PL0 Copyright (c) Steve Scherf et al.
# Submitted via: audiograbber 1.83.01
#
DISCID=990a9f0c
DTITLE=John Lee Hooker - Blues Is The Color
DYEAR=2007
DGENRE=Blues
TTITLE0=Boom Boom
TTITLE1=I Feel So Good
TTITLE2=Blues Before Sunrise
TTITLE3=She Shot Me Down
TTITLE4=Rock With Me
TTITLE5=Hard Times
TTITLE6=Crawlin' Kingsnake
TTITLE7=Good Rockin' Mama
TTITLE8=Want Ad Blues
TTITLE9=Turn Over A New Leaf
TTITLE10=You Receive Me
TTITLE11=Gotta Boogie
EXTD=
EXTT0=
EXTT1=
EXTT2=
EXTT3=
EXTT4=
EXTT5=
EXTT6=
EXTT7=
EXTT8=
EXTT9=
EXTT10=
EXTT11=
PLAYORDER=
